<mxfile host="www.draw.io" modified="2023-04-17T14:58:02.735Z" agent="Mozilla/5.0 (Macintosh; Intel Mac OS X 10_15_7) AppleWebKit/537.36 (KHTML, like Gecko) Chrome/112.0.0.0 Safari/537.36" etag="364YmtE41vc_yIrSiS8e" version="21.1.8" type="device">
  <diagram id="9HnStjpjAljDDnkqj9He" name="Page-1">
    <mxGraphModel dx="1247" dy="576" grid="1" gridSize="10" guides="1" tooltips="1" connect="1" arrows="1" fold="1" page="1" pageScale="1" pageWidth="1654" pageHeight="1169" math="0" shadow="0">
      <root>
        <mxCell id="0" />
        <mxCell id="1" parent="0" />
        <mxCell id="nJnqooiq6-FVW7L4uHwT-16" value="" style="rounded=0;whiteSpace=wrap;html=1;strokeWidth=1;align=left;fillColor=none;strokeColor=none;" parent="1" vertex="1">
          <mxGeometry x="330" y="60" width="1030" height="760" as="geometry" />
        </mxCell>
        <mxCell id="27pfvI13phsAGXSqU3TV-26" value="" style="rounded=0;whiteSpace=wrap;html=1;dashed=1;strokeColor=#06B817;" parent="1" vertex="1">
          <mxGeometry x="562" y="160" width="560" height="240" as="geometry" />
        </mxCell>
        <mxCell id="27pfvI13phsAGXSqU3TV-3" value="" style="rounded=0;whiteSpace=wrap;html=1;dashed=1;strokeWidth=1;strokeColor=#0526FF;" parent="1" vertex="1">
          <mxGeometry x="420" y="410" width="890" height="370" as="geometry" />
        </mxCell>
        <mxCell id="27pfvI13phsAGXSqU3TV-5" value="" style="group" parent="1" vertex="1" connectable="0">
          <mxGeometry x="660" y="585" width="70" height="80" as="geometry" />
        </mxCell>
        <mxCell id="27pfvI13phsAGXSqU3TV-4" value="Control Plane 1&lt;br&gt;&lt;br&gt;ocp-cp-1&lt;br&gt;&lt;br&gt;&lt;div&gt;VCPU: 4&amp;nbsp;&lt;/div&gt;&lt;div&gt;RAM: 16GB&lt;/div&gt;&lt;div&gt;HDD: 50GB&lt;/div&gt;" style="aspect=fixed;perimeter=ellipsePerimeter;html=1;align=left;shadow=0;dashed=0;spacingTop=3;image;image=img/lib/active_directory/generic_server.svg;" parent="27pfvI13phsAGXSqU3TV-5" vertex="1">
          <mxGeometry width="44.8" height="80" as="geometry" />
        </mxCell>
        <mxCell id="27pfvI13phsAGXSqU3TV-1" value="" style="aspect=fixed;html=1;points=[];align=center;image;fontSize=12;image=img/lib/mscae/OpenShift.svg;" parent="27pfvI13phsAGXSqU3TV-5" vertex="1">
          <mxGeometry x="10" y="34" width="50" height="46" as="geometry" />
        </mxCell>
        <mxCell id="27pfvI13phsAGXSqU3TV-6" value="" style="group" parent="1" vertex="1" connectable="0">
          <mxGeometry x="764" y="585" width="70" height="80" as="geometry" />
        </mxCell>
        <mxCell id="27pfvI13phsAGXSqU3TV-7" value="Control Plane&amp;nbsp;2&lt;br&gt;&lt;br&gt;ocp-cp-2&lt;br&gt;&lt;br&gt;VCPU: 4&lt;br&gt;RAM: 16GB&lt;br&gt;HDD: 50GB" style="aspect=fixed;perimeter=ellipsePerimeter;html=1;align=left;shadow=0;dashed=0;spacingTop=3;image;image=img/lib/active_directory/generic_server.svg;" parent="27pfvI13phsAGXSqU3TV-6" vertex="1">
          <mxGeometry width="44.8" height="80" as="geometry" />
        </mxCell>
        <mxCell id="27pfvI13phsAGXSqU3TV-8" value="" style="aspect=fixed;html=1;points=[];align=center;image;fontSize=12;image=img/lib/mscae/OpenShift.svg;" parent="27pfvI13phsAGXSqU3TV-6" vertex="1">
          <mxGeometry x="10" y="34" width="50" height="46" as="geometry" />
        </mxCell>
        <mxCell id="27pfvI13phsAGXSqU3TV-9" value="" style="group" parent="1" vertex="1" connectable="0">
          <mxGeometry x="874" y="585" width="70" height="80" as="geometry" />
        </mxCell>
        <mxCell id="27pfvI13phsAGXSqU3TV-10" value="Control Plane&amp;nbsp;3&lt;br&gt;&lt;br&gt;ocp-cp-3&lt;br&gt;&lt;br&gt;VCPU: 4&lt;br&gt;RAM: 16GB&lt;br&gt;HDD: 50GB" style="aspect=fixed;perimeter=ellipsePerimeter;html=1;align=left;shadow=0;dashed=0;spacingTop=3;image;image=img/lib/active_directory/generic_server.svg;" parent="27pfvI13phsAGXSqU3TV-9" vertex="1">
          <mxGeometry width="44.8" height="80" as="geometry" />
        </mxCell>
        <mxCell id="27pfvI13phsAGXSqU3TV-11" value="" style="aspect=fixed;html=1;points=[];align=center;image;fontSize=12;image=img/lib/mscae/OpenShift.svg;" parent="27pfvI13phsAGXSqU3TV-9" vertex="1">
          <mxGeometry x="10" y="34" width="50" height="46" as="geometry" />
        </mxCell>
        <mxCell id="27pfvI13phsAGXSqU3TV-13" value="" style="group" parent="1" vertex="1" connectable="0">
          <mxGeometry x="1014" y="585" width="70" height="80" as="geometry" />
        </mxCell>
        <mxCell id="27pfvI13phsAGXSqU3TV-14" value="Worker 1&lt;br&gt;&lt;br&gt;ocp-w-1&lt;br&gt;&lt;br&gt;VCPU: 4&lt;br&gt;RAM: 16GB&lt;br&gt;HDD: 50GB" style="aspect=fixed;perimeter=ellipsePerimeter;html=1;align=left;shadow=0;dashed=0;spacingTop=3;image;image=img/lib/active_directory/generic_server.svg;" parent="27pfvI13phsAGXSqU3TV-13" vertex="1">
          <mxGeometry width="44.8" height="80" as="geometry" />
        </mxCell>
        <mxCell id="27pfvI13phsAGXSqU3TV-15" value="" style="aspect=fixed;html=1;points=[];align=center;image;fontSize=12;image=img/lib/mscae/OpenShift.svg;" parent="27pfvI13phsAGXSqU3TV-13" vertex="1">
          <mxGeometry x="12" y="34" width="50" height="46" as="geometry" />
        </mxCell>
        <mxCell id="27pfvI13phsAGXSqU3TV-16" value="" style="group" parent="1" vertex="1" connectable="0">
          <mxGeometry x="1100" y="585" width="70" height="80" as="geometry" />
        </mxCell>
        <mxCell id="27pfvI13phsAGXSqU3TV-17" value="Worker 2&lt;br&gt;&lt;br&gt;ocp-w-2&lt;br&gt;&lt;br&gt;VCPU: 4&lt;br&gt;RAM: 16GB&lt;br&gt;HDD: 50GB" style="aspect=fixed;perimeter=ellipsePerimeter;html=1;align=left;shadow=0;dashed=0;spacingTop=3;image;image=img/lib/active_directory/generic_server.svg;" parent="27pfvI13phsAGXSqU3TV-16" vertex="1">
          <mxGeometry width="44.8" height="80" as="geometry" />
        </mxCell>
        <mxCell id="27pfvI13phsAGXSqU3TV-18" value="" style="aspect=fixed;html=1;points=[];align=center;image;fontSize=12;image=img/lib/mscae/OpenShift.svg;" parent="27pfvI13phsAGXSqU3TV-16" vertex="1">
          <mxGeometry x="10" y="34" width="50" height="46" as="geometry" />
        </mxCell>
        <mxCell id="27pfvI13phsAGXSqU3TV-31" value="" style="group" parent="1" vertex="1" connectable="0">
          <mxGeometry x="470" y="505" width="70" height="80" as="geometry" />
        </mxCell>
        <mxCell id="27pfvI13phsAGXSqU3TV-32" value="Bootstrap&lt;br&gt;&lt;br&gt;ocp-bootstrap&lt;br&gt;&lt;br&gt;VCPU: 6&lt;br&gt;RAM: 10GB&lt;br&gt;HDD 50GB&amp;nbsp;" style="aspect=fixed;perimeter=ellipsePerimeter;html=1;align=left;shadow=0;dashed=0;spacingTop=3;image;image=img/lib/active_directory/generic_server.svg;" parent="27pfvI13phsAGXSqU3TV-31" vertex="1">
          <mxGeometry width="44.8" height="80" as="geometry" />
        </mxCell>
        <mxCell id="27pfvI13phsAGXSqU3TV-33" value="" style="aspect=fixed;html=1;points=[];align=center;image;fontSize=12;image=img/lib/mscae/OpenShift.svg;" parent="27pfvI13phsAGXSqU3TV-31" vertex="1">
          <mxGeometry x="10" y="34" width="50" height="46" as="geometry" />
        </mxCell>
        <mxCell id="27pfvI13phsAGXSqU3TV-35" value="&lt;div style=&quot;text-align: left&quot;&gt;&lt;span&gt;&lt;b&gt;OpenShift Network&lt;/b&gt;&lt;/span&gt;&lt;/div&gt;&lt;br&gt;&lt;div style=&quot;text-align: left&quot;&gt;&lt;span&gt;Domain: ocp.mentzell.us&lt;/span&gt;&lt;/div&gt;&lt;div style=&quot;text-align: left&quot;&gt;&lt;span&gt;Network: 10.6.66.0/24&lt;/span&gt;&lt;/div&gt;&lt;div style=&quot;text-align: left&quot;&gt;&lt;span&gt;Cluster Name: ocp&lt;/span&gt;&lt;/div&gt;" style="text;html=1;strokeColor=none;fillColor=none;align=right;verticalAlign=middle;whiteSpace=wrap;rounded=0;dashed=1;" parent="1" vertex="1">
          <mxGeometry x="1165" y="420" width="145" height="70" as="geometry" />
        </mxCell>
        <mxCell id="27pfvI13phsAGXSqU3TV-36" value="&lt;b&gt;Local Network&lt;br&gt;&lt;/b&gt;&lt;br&gt;192.168.1.0/24" style="text;html=1;strokeColor=none;fillColor=none;align=left;verticalAlign=middle;whiteSpace=wrap;rounded=0;dashed=1;" parent="1" vertex="1">
          <mxGeometry x="1031" y="162.13" width="93" height="50" as="geometry" />
        </mxCell>
        <mxCell id="nJnqooiq6-FVW7L4uHwT-6" value="" style="group" parent="1" vertex="1" connectable="0">
          <mxGeometry x="874" y="190" width="270" height="100" as="geometry" />
        </mxCell>
        <mxCell id="nJnqooiq6-FVW7L4uHwT-1" value="" style="aspect=fixed;perimeter=ellipsePerimeter;html=1;align=center;shadow=0;dashed=0;spacingTop=3;image;image=img/lib/active_directory/laptop_client.svg;" parent="nJnqooiq6-FVW7L4uHwT-6" vertex="1">
          <mxGeometry y="20" width="72" height="80" as="geometry" />
        </mxCell>
        <mxCell id="nJnqooiq6-FVW7L4uHwT-2" value="" style="group" parent="nJnqooiq6-FVW7L4uHwT-6" vertex="1" connectable="0">
          <mxGeometry x="10" width="260" height="97.19999999999999" as="geometry" />
        </mxCell>
        <mxCell id="nJnqooiq6-FVW7L4uHwT-4" value="CLI Tools&lt;br&gt;- kubectl&lt;br&gt;- oc" style="text;html=1;strokeColor=none;align=left;verticalAlign=middle;whiteSpace=wrap;rounded=0;fillColor=#ffffff;" parent="nJnqooiq6-FVW7L4uHwT-2" vertex="1">
          <mxGeometry x="71.65" y="23.6" width="68.35" height="70" as="geometry" />
        </mxCell>
        <mxCell id="nJnqooiq6-FVW7L4uHwT-9" value="Internet" style="aspect=fixed;perimeter=ellipsePerimeter;html=1;align=center;shadow=0;dashed=0;spacingTop=3;image;image=img/lib/active_directory/internet_cloud.svg;" parent="1" vertex="1">
          <mxGeometry x="420" y="246.25" width="88.49" height="55.75" as="geometry" />
        </mxCell>
        <mxCell id="nJnqooiq6-FVW7L4uHwT-10" value="Router" style="image;html=1;image=img/lib/clip_art/networking/Router_Icon_128x128.png" parent="1" vertex="1">
          <mxGeometry x="540" y="255" width="50" height="50" as="geometry" />
        </mxCell>
        <mxCell id="nJnqooiq6-FVW7L4uHwT-14" value="" style="group" parent="1" vertex="1" connectable="0">
          <mxGeometry x="670" y="295" width="344" height="200" as="geometry" />
        </mxCell>
        <mxCell id="27pfvI13phsAGXSqU3TV-29" value="" style="group" parent="nJnqooiq6-FVW7L4uHwT-14" vertex="1" connectable="0">
          <mxGeometry x="64" y="50" width="280" height="130" as="geometry" />
        </mxCell>
        <mxCell id="27pfvI13phsAGXSqU3TV-22" value="&lt;b style=&quot;text-align: left ; background-color: rgb(248 , 249 , 250)&quot;&gt;&lt;br&gt;&lt;/b&gt;" style="aspect=fixed;perimeter=ellipsePerimeter;html=1;align=center;shadow=0;dashed=0;spacingTop=3;image;image=img/lib/active_directory/windows_server.svg;imageBackground=#ffffff;" parent="27pfvI13phsAGXSqU3TV-29" vertex="1">
          <mxGeometry x="8.350000000000023" y="20" width="63.3" height="77.2" as="geometry" />
        </mxCell>
        <mxCell id="27pfvI13phsAGXSqU3TV-24" value="- NAT Gateway&lt;br&gt;- DNS (BIND)&lt;br&gt;&lt;div&gt;&lt;span&gt;- DHCP - Assign Static IPs&lt;/span&gt;&lt;/div&gt;&lt;div&gt;- Web/File Server (Apache)&lt;span&gt;&lt;br&gt;&lt;/span&gt;&lt;/div&gt;&lt;div&gt;- Proxy &amp;amp; Loadbalancer (HAProxy)&lt;br&gt;&lt;/div&gt;&lt;div&gt;- NFS Server&lt;/div&gt;&lt;div&gt;&lt;br&gt;&lt;/div&gt;&lt;div&gt;Hostname: ocp-svc&lt;/div&gt;&lt;div&gt;VCPU: 4&lt;/div&gt;&lt;div&gt;RAM: 6GB&lt;/div&gt;&lt;div&gt;HDD: 150GB&lt;/div&gt;&lt;div&gt;&lt;br&gt;&lt;/div&gt;&lt;div&gt;&lt;br&gt;&lt;/div&gt;" style="text;html=1;strokeColor=none;align=left;verticalAlign=middle;whiteSpace=wrap;rounded=0;fillColor=#ffffff;" parent="27pfvI13phsAGXSqU3TV-29" vertex="1">
          <mxGeometry x="71.65" y="9" width="208.35" height="170" as="geometry" />
        </mxCell>
        <mxCell id="nJnqooiq6-FVW7L4uHwT-7" value="&lt;b&gt;Interface 1&lt;/b&gt;&lt;br&gt;zone: External&lt;br&gt;if: ens192&lt;br&gt;ip: 192.168.1.X" style="text;html=1;strokeColor=none;fillColor=none;align=left;verticalAlign=middle;whiteSpace=wrap;rounded=0;" parent="nJnqooiq6-FVW7L4uHwT-14" vertex="1">
          <mxGeometry y="30" width="100" height="70" as="geometry" />
        </mxCell>
        <mxCell id="nJnqooiq6-FVW7L4uHwT-8" value="&lt;div style=&quot;text-align: left&quot;&gt;&lt;span&gt;&lt;b&gt;Interface 2&lt;/b&gt;&lt;/span&gt;&lt;/div&gt;&lt;div style=&quot;text-align: left&quot;&gt;&lt;span&gt;zone: Internal&lt;/span&gt;&lt;/div&gt;&lt;div style=&quot;text-align: left&quot;&gt;if: ens224&lt;/div&gt;&lt;div style=&quot;text-align: left&quot;&gt;&lt;span&gt;ip: 10.6.66.1&lt;/span&gt;&lt;/div&gt;" style="text;html=1;strokeColor=none;fillColor=none;align=center;verticalAlign=middle;whiteSpace=wrap;rounded=0;" parent="nJnqooiq6-FVW7L4uHwT-14" vertex="1">
          <mxGeometry y="115" width="90" height="80" as="geometry" />
        </mxCell>
        <mxCell id="nJnqooiq6-FVW7L4uHwT-13" value="&lt;b&gt;Helper Node&lt;/b&gt;" style="text;html=1;strokeColor=none;fillColor=none;align=center;verticalAlign=middle;whiteSpace=wrap;rounded=0;" parent="nJnqooiq6-FVW7L4uHwT-14" vertex="1">
          <mxGeometry x="94" width="80" height="20" as="geometry" />
        </mxCell>
        <mxCell id="27pfvI13phsAGXSqU3TV-28" value="&lt;b style=&quot;text-align: left&quot;&gt;Services&lt;/b&gt;" style="text;html=1;strokeColor=none;fillColor=none;align=center;verticalAlign=middle;whiteSpace=wrap;rounded=0;dashed=1;" parent="nJnqooiq6-FVW7L4uHwT-14" vertex="1">
          <mxGeometry x="137" y="30" width="70" height="20" as="geometry" />
        </mxCell>
        <mxCell id="0kvXB5DdNPEwONpDuKU6-2" value="192.168.1.1" style="text;html=1;strokeColor=none;fillColor=none;align=center;verticalAlign=middle;whiteSpace=wrap;rounded=0;" parent="1" vertex="1">
          <mxGeometry x="610" y="270" width="40" height="20" as="geometry" />
        </mxCell>
        <mxCell id="wh7Gbkx4YKFHydJSQGTm-1" value="" style="group" vertex="1" connectable="0" parent="1">
          <mxGeometry x="1190" y="585" width="70" height="80" as="geometry" />
        </mxCell>
        <mxCell id="wh7Gbkx4YKFHydJSQGTm-2" value="Worker 3&lt;br&gt;&lt;br&gt;ocp-w-3&lt;br&gt;&lt;br&gt;VCPU: 4&lt;br&gt;RAM: 16GB&lt;br&gt;HDD: 50GB" style="aspect=fixed;perimeter=ellipsePerimeter;html=1;align=left;shadow=0;dashed=0;spacingTop=3;image;image=img/lib/active_directory/generic_server.svg;" vertex="1" parent="wh7Gbkx4YKFHydJSQGTm-1">
          <mxGeometry width="44.8" height="80" as="geometry" />
        </mxCell>
        <mxCell id="wh7Gbkx4YKFHydJSQGTm-3" value="" style="aspect=fixed;html=1;points=[];align=center;image;fontSize=12;image=img/lib/mscae/OpenShift.svg;" vertex="1" parent="wh7Gbkx4YKFHydJSQGTm-1">
          <mxGeometry x="10" y="34" width="50" height="46" as="geometry" />
        </mxCell>
      </root>
    </mxGraphModel>
  </diagram>
</mxfile>
